<svg width="272" height="48" viewBox="0 0 272 48" fill="none" xmlns="http://www.w3.org/2000/svg">
  <rect width="48" height="48" rx="12" fill="#161B1F"/>
  <path d="M13 28L21 12H28L20 28H13Z" fill="#F4F5F6"/>
  <path d="M22 35L30 19H36L28 35H22Z" fill="#A86134"/>
  <path d="M66 19.5H72.5V28.8C72.5 31.4667 73.85 32.8 76.55 32.8C79.25 32.8 80.6 31.4667 80.6 28.8V19.5H87.1V29.05C87.1 32.4167 86.15 34.95 84.25 36.65C82.3833 38.35 79.8167 39.2 76.55 39.2C73.2833 39.2 70.7 38.35 68.8 36.65C66.9333 34.95 66 32.4167 66 29.05V19.5Z" fill="#161B1F"/>
  <path d="M92.3398 39V19.5H99.0898L105.09 29.85L111.09 19.5H117.84V39H111.64V28.95L107.69 35.75H102.49L98.5398 28.95V39H92.3398Z" fill="#161B1F"/>
  <path d="M123.307 39V19.5H138.957V24.95H129.707V26.85H138.057V31.7H129.707V33.55H139.207V39H123.307Z" fill="#161B1F"/>
  <path d="M143.982 39V19.5H151.182L158.232 29.65V19.5H164.582V39H157.382L150.332 28.85V39H143.982Z" fill="#161B1F"/>
  <path d="M173.531 39V25.05H167.781V19.5H185.681V25.05H179.931V39H173.531Z" fill="#161B1F"/>
  <path d="M188.93 29.25C188.93 26.1167 189.98 23.5833 192.08 21.65C194.213 19.7167 197.03 18.75 200.53 18.75C203.63 18.75 206.197 19.5167 208.23 21.05C210.263 22.55 211.447 24.6167 211.78 27.25H205.38C204.913 25.3833 203.297 24.45 200.53 24.45C198.897 24.45 197.58 24.8833 196.58 25.75C195.613 26.5833 195.13 27.75 195.13 29.25C195.13 30.75 195.613 31.9333 196.58 32.8C197.58 33.6333 198.897 34.05 200.53 34.05C203.297 34.05 204.913 33.1167 205.38 31.25H211.78C211.447 33.8833 210.263 35.9667 208.23 37.5C206.197 39 203.63 39.75 200.53 39.75C197.03 39.75 194.213 38.7833 192.08 36.85C189.98 34.9167 188.93 32.3833 188.93 29.25Z" fill="#161B1F"/>
  <path d="M215.786 39V19.5H222.186V26.4H229.336V19.5H235.736V39H229.336V31.95H222.186V39H215.786Z" fill="#161B1F"/>
</svg>
